<svg width="60" height="70" viewBox="0 0 60 70" fill="none" xmlns="http://www.w3.org/2000/svg">
<path d="M36.1977 14.8315H7.41573C3.32013 14.8315 0 11.5113 0 7.41573C0 3.32014 3.32013 0 7.41573 0H35.6742C49.1089 0 60 10.891 60 24.3258V25.9986C60 38.5096 49.8579 48.6517 37.3469 48.6517H25.368C19.4729 48.6517 14.6939 53.4307 14.6939 59.3258V62.6531C14.6939 66.7107 11.4045 70 7.34694 70C3.28934 70 0 66.7107 0 62.6531V52.3034C0 42.5298 7.92306 34.6067 17.6966 34.6067H36.1977C41.6585 34.6067 46.0853 30.1799 46.0853 24.7191C46.0853 19.2583 41.6585 14.8315 36.1977 14.8315Z" fill="url(#paint0_linear_209_48)"/>
<defs>
<linearGradient id="paint0_linear_209_48" x1="-0.111317" y1="35.0562" x2="60" y2="35.0562" gradientUnits="userSpaceOnUse">
<stop stop-color="#2A403E"/>
<stop offset="1" stop-color="#09938A"/>
</linearGradient>
</defs>
</svg>
